<svg width="709" height="835" viewBox="0 0 709 835" fill="none" xmlns="http://www.w3.org/2000/svg">
<path fill-rule="evenodd" clip-rule="evenodd" d="M512.39 829.825C595.627 814.511 641.774 734.938 712.26 690.965C780.898 648.144 872.257 637.321 920.769 575.052C973.377 507.527 998.64 420.594 987.376 337.838C976.032 254.5 927.359 176.651 859.066 121.748C795.131 70.3487 706.021 66.5483 624.46 46.0778C544.939 26.1195 467.709 -11.1241 386.803 3.21841C302.334 18.1925 232.614 70.1088 171.459 126.383C106.423 186.228 49.4244 254.143 24.9676 336.174C-1.53769 425.076 -15.2853 524.375 28.0655 607.342C71.1289 689.76 166.084 734.657 254.366 775.211C335.099 812.297 424.072 846.074 512.39 829.825Z" fill="url(#paint0_linear_763_4061)" fill-opacity="0.5"/>
<defs>
<linearGradient id="paint0_linear_763_4061" x1="231.707" y1="767.511" x2="745.993" y2="61.1008" gradientUnits="userSpaceOnUse">
<stop stop-color="#6FCCFF"/>
<stop offset="1" stop-color="#2AB4FF"/>
</linearGradient>
</defs>
</svg>
