<svg width="805" height="252" viewBox="0 0 805 252" fill="none" xmlns="http://www.w3.org/2000/svg">
<path fill-rule="evenodd" clip-rule="evenodd" d="M-105.857 1303.4C22.5141 1351.52 156.685 1252.73 280.28 1193.63C394.211 1139.15 494.489 1069.96 578.342 976.214C676.788 866.159 814.047 755.044 803.726 608.456C793.408 461.908 637.006 376.125 528.992 275.292C435.674 188.177 341.501 105.419 220.277 63.7943C90.4982 19.2324 -60.8134 -35.0846 -180.457 31.6894C-299.046 97.8749 -282.866 271.943 -356.106 385.478C-429.248 498.86 -613.898 557.378 -606.196 691.657C-598.5 825.857 -408.194 863.087 -322.721 967.591C-236.144 1073.44 -234.581 1255.14 -105.857 1303.4Z" fill="url(#paint0_linear_763_4056)"/>
<defs>
<linearGradient id="paint0_linear_763_4056" x1="-732" y1="1143.43" x2="971.103" y2="1022.39" gradientUnits="userSpaceOnUse">
<stop stop-color="#6ECCFF"/>
<stop offset="1" stop-color="#28B4FF"/>
</linearGradient>
</defs>
</svg>
