<svg width="933" height="254" viewBox="0 0 933 254" fill="none" xmlns="http://www.w3.org/2000/svg">
<path fill-rule="evenodd" clip-rule="evenodd" d="M577.284 1092.4C729.173 1093.93 849.246 1319.02 989.625 1261.65C1120.12 1208.32 1063.48 1000.21 1118 871.419C1170.05 748.448 1324.33 655.698 1301.76 524.273C1279.11 392.354 1108.98 348.161 1012.08 254.749C925.413 171.193 880.443 30.3388 762.311 4.21417C644.159 -21.9149 540.479 80.5742 428.319 125.651C329.077 165.536 217.058 178.84 141.348 253.777C63.0285 331.297 19.0452 437.209 3.8869 545.75C-11.2197 653.922 31.3239 756.132 56.3386 862.493C88.0446 997.305 42.485 1196.98 170.315 1253.39C306.496 1313.49 428.16 1090.89 577.284 1092.4Z" fill="url(#paint0_linear_763_4055)"/>
<defs>
<linearGradient id="paint0_linear_763_4055" x1="408.187" y1="-163.987" x2="1317.92" y2="803.742" gradientUnits="userSpaceOnUse">
<stop stop-color="#FFBCDD"/>
<stop offset="0.46875" stop-color="#FFD3CA"/>
<stop offset="1" stop-color="#06A4FF"/>
</linearGradient>
</defs>
</svg>
