<svg width="1170" height="996" viewBox="0 0 1170 996" fill="none" xmlns="http://www.w3.org/2000/svg">
<path fill-rule="evenodd" clip-rule="evenodd" d="M602.424 978.866C730.214 982.396 873.059 1023.17 975.915 959.746C1078.68 896.376 1073.65 770.373 1107.4 667.483C1139.22 570.455 1180.48 477.262 1166.96 377.296C1150.81 257.859 1138.64 118.633 1023.43 46.5785C908.057 -25.5806 744.113 2.08258 602.424 24.2188C481.355 43.1335 383.859 104.346 282.174 162.386C176.939 222.452 12.0177 261.292 1.25382 367.356C-10.0547 478.786 189.575 524.954 234.693 630.246C277.361 729.82 162.753 860.237 246.464 939.598C327.558 1016.48 479.805 975.479 602.424 978.866Z" fill="url(#paint0_linear_763_4060)" fill-opacity="0.6"/>
<defs>
<linearGradient id="paint0_linear_763_4060" x1="245.473" y1="952.51" x2="930.177" y2="10.3115" gradientUnits="userSpaceOnUse">
<stop stop-color="#C4C4C4"/>
<stop offset="0.0001" stop-color="#FFBCDD"/>
<stop offset="1" stop-color="#FFD4CB"/>
</linearGradient>
</defs>
</svg>
