<?xml version="1.0" encoding="UTF-8"?><svg id="_лой_1" xmlns="http://www.w3.org/2000/svg" viewBox="0 0 191.53 192.23"><defs><style>.cls-1{fill:#f28c00;}.cls-2{fill:#1d1d1b;}.cls-3{fill:none;stroke:#1d1d1b;stroke-miterlimit:10;stroke-width:2.83px;}</style></defs><circle class="cls-1" cx="95.94" cy="95.24" r="90.35"/><path class="cls-2" d="M61.62,139.81h-19.76c-.88,0-1.59-.66-1.58-1.47,0-.16,.03-.32,.09-.47L80.49,36.53c.38-.87,1.32-1.43,2.34-1.4h25.9c.99,0,1.87,.56,2.24,1.39l40.54,101.34c.29,.76-.14,1.59-.97,1.86-.17,.05-.34,.08-.52,.08h-20.48c-.67,0-1.27-.37-1.51-.93l-31.23-81.4c-.3-.75-.43-1.12-.97-1.11-.47,0-.79,.71-.95,1.11l-31.71,81.4c-.25,.57-.86,.94-1.53,.93Z"/><circle class="cls-3" cx="95.94" cy="95.24" r="82.5"/></svg>